# AST/ASF file generated using VICON BodyLanguage
# -----------------------------------------------
:version 1.10
:name VICON
:units
  mass 1.0
  length 0.45
  angle deg
:documentation
   .ast/.asf automatically generated from VICON data using
   VICON BodyBuilder and BodyLanguage model FoxedUp or BRILLIANT.MOD
:root
   order TX TY TZ RX RY RZ
   axis XYZ
   position 0 0 0  
   orientation 0 0 0 
:bonedata
  begin
     id 1 
     name lhipjoint
     direction 0.567725 -0.736092 0.368589 
     length 2.42353 
     axis 0 0 0  XYZ
  end
  begin
     id 2 
     name lfemur
     direction 0.34202 -0.939693 0  
     length 7.24894  
     axis 0 0 20  XYZ
    dof rx ry rz
    limits (-160.0 20.0)
           (-70.0 70.0)
           (-60.0 70.0)
  end
  begin
     id 3 
     name ltibia
     direction 0.34202 -0.939693 0   
     length 7.6997   
     axis 0 0 20   XYZ
    dof rx
    limits (-10.0 170.0)
  end
  begin
     id 4 
     name lfoot
     direction 0.100767 -0.276854 0.955614   
     length 2.37556   
     axis -90 7.62852e-016 20   XYZ
    dof rx rz
    limits (-45.0 90.0)
           (-70.0 20.0)
  end
  begin
     id 5 
     name ltoes
     direction 1.53592e-011 -4.21894e-011 1   
     length 1.18363   
     axis -90 7.62852e-016 20   XYZ
    dof rx
    limits (-90.0 20.0)
  end
  begin
     id 6 
     name rhipjoint
     direction -0.556459 -0.742938 0.372017   
     length 2.4012  
     axis 0 0 0  XYZ 
  end
  begin
     id 7 
     name rfemur
     direction -0.34202 -0.939693 0   
     length 7.5119   
     axis 0 0 -20   XYZ
    dof rx ry rz
    limits (-160.0 20.0)
           (-70.0 70.0)
           (-70.0 60.0)
  end
  begin
     id 8 
     name rtibia
     direction -0.34202 -0.939693 0   
     length 7.50155   
     axis 0 0 -20   XYZ
    dof rx
    limits (-10.0 170.0)
 end
 begin
     id 9 
     name rfoot
     direction -0.118427 -0.325376 0.938139   
     length 2.32487  
     axis -90 -7.62852e-016 -20   XYZ
    dof rx rz
    limits (-45.0 90.0)
           (-20.0 70.0)
  end
  begin
     id 10 
     name rtoes
     direction -1.53525e-011 -4.21868e-011 1   
     length 1.15233   
     axis -90 -7.62852e-016 -20   XYZ
    dof rx
    limits (-90.0 20.0)
  end
  begin
     id 11 
     name lowerback
     direction 0.0287568 0.999577 -0.00434502   
     length 2.15243   
     axis 0 0 0   XYZ
    dof rx ry rz
    limits (-20.0 45.0)
           (-30.0 30.0)
           (-30.0 30.0)
  end
  begin
     id 12 
     name upperback
     direction 0.0294009 0.99956 0.00404628   
     length 2.15427   
     axis 0 0 0   XYZ
    dof rx ry rz
    limits (-20.0 45.0)
           (-30.0 30.0)
           (-30.0 30.0)
  end
  begin
     id 13 
     name thorax
     direction 0.0151014 0.999868 0.0059419   
     length 2.14898   
     axis 0 0 0   XYZ
    dof rx ry rz
    limits (-20.0 45.0)
           (-30.0 30.0)
           (-30.0 30.0)
  end
  begin
     id 14 
     name lowerneck
     direction -0.0249197 0.989906 0.139515   
     length 1.6861   
     axis 0 0 0   XYZ
    dof rx ry rz
    limits (-20.0 45.0)
           (-30.0 30.0)
           (-30.0 30.0)
  end
  begin
     id 15 
     name upperneck
     direction 0.0438463 0.988795 -0.142693   
     length 1.71276   
     axis 0 0 0   XYZ
    dof rx ry rz
    limits (-20.0 45.0)
           (-30.0 30.0)
           (-30.0 30.0)
  end
  begin
     id 16
     name head
     direction 0.0148499 0.997845 -0.0639186  
     length 1.7209  
     axis 0 0 0   XYZ
    dof rx ry rz
    limits (-20.0 45.0)
           (-30.0 30.0)
           (-30.0 30.0)
  end
  begin
     id 17 
     name lclavicle
     direction 0.940298 0.323464 -0.105876  
     length 3.9048  
     axis 0 0 0   XYZ
    dof ry rz
    limits (-20.0 10.0)
           (0.0 20.0)
  end
  begin
     id 18 
     name lhumerus
     direction 1 -4.48954e-011 -4.9675e-028   
     length 4.6851   
     axis 180 -30 -90   XYZ
    dof rx ry rz
    limits (-60.0 90.0)
           (-90.0 90.0)
           (-90.0 90.0)
  end
  begin
     id 19
     name lradius
     direction 1 -4.48992e-011 -1.03359e-026   
     length 3.39626   
     axis 180 -30 -90   XYZ
    dof rx
    limits (-10.0 170.0)
  end
  begin
     id 20
     name lwrist
     direction 1 -4.48906e-011 -1.67336e-026   
     length 1.69813   
     axis 9.90442e-015 90 90   XYZ
    dof ry
    limits (-180.0 0.0)
 end
  begin
     id 21 
     name lhand
     direction 1 -4.49006e-011 -3.34673e-026   
     length 0.486078   
     axis 2.1355e-014 90 90   XYZ
    dof rx rz
    limits (-90.0 90.0)
           (-45.0 45.0)
  end
  begin
     id 22 
     name lfingers
     direction 1 -4.48992e-011 -6.69345e-026   
     length 0.391889   
     axis 4.27099e-014 90 90   XYZ
    dof rx
    limits (0.0 90.0)
  end
  begin
     id 23
     name lthumb
     direction 0.707107 -6.34926e-011 0.707107   
     length 0.562676   
     axis -90 45 2.85299e-015   XYZ
    dof rx rz
    limits (-45.0 45.0)
           (-45.0 45.0)
  end
  begin
     id 24 
     name rclavicle
     direction -0.882459 0.414895 -0.221648   
     length 3.44646  
     axis 0 0 0   XYZ 
    dof ry rz
    limits (-10.0 20.0)
           (-20.0 0.0)
  end
  begin
     id 25 
     name rhumerus
     direction -1 -4.48962e-011 -2.37984e-027  
     length 5.55576   
     axis 180 30 90   XYZ
    dof rx ry rz
    limits (-90.0 60.0)
           (-90.0 90.0)
           (-90.0 90.0)
  end
  begin
     id 26 
     name rradius
     direction -1 -4.48982e-011 -6.86791e-027   
     length 3.32774   
     axis 180 30 90   XYZ
    dof rx
    limits (-10.0 170.0)
  end
  begin
     id 27 
     name rwrist
     direction -1 -4.48961e-011 -1.67336e-026   
     length 1.66387   
     axis 9.90442e-015 -90 -90   XYZ
    dof ry
    limits (-180.0 0.0)
  end
  begin
     id 28
     name rhand
     direction -1 -4.4897e-011 -3.34673e-026   
     length 0.507628   
     axis 2.1355e-014 -90 -90   XYZ
    dof rx rz
    limits (-90.0 90.0)
           (-45.0 45.0)
  end
  begin
     id 29
     name rfingers
     direction -1 -4.48854e-011 -6.69345e-026   
     length 0.409263   
     axis 4.27099e-014 -90 -90   XYZ
    dof rx
    limits (0.0 90.0)
  end
  begin
     id 30
     name rthumb
     direction -0.707107 -6.34913e-011 0.707107   
     length 0.587622   
     axis -90 -45 -2.85299e-015   XYZ
    dof rx rz
    limits (-45.0 45.0)
           (-45.0 45.0)
  end
:hierarchy
  begin
    root lhipjoint rhipjoint lowerback
    lhipjoint lfemur
    lfemur ltibia
    ltibia lfoot
    lfoot ltoes
    rhipjoint rfemur
    rfemur rtibia
    rtibia rfoot
    rfoot rtoes
    lowerback upperback
    upperback thorax
    thorax lowerneck lclavicle rclavicle
    lowerneck upperneck
    upperneck head
    lclavicle lhumerus
    lhumerus lradius
    lradius lwrist
    lwrist lhand lthumb
    lhand lfingers
    rclavicle rhumerus
    rhumerus rradius
    rradius rwrist
    rwrist rhand rthumb
    rhand rfingers
  end

#!OML:ASF E:\motion texture\Top Level 1\Subject 1\Session 1\male.ASF
:FULLY-SPECIFIED
:DEGREES
22
root 42.6425 17.8811 5.74622 122.803 -83.9807 -112.085
lowerback -2.54405 -0.798666 5.16407
upperback -1.67133 -1.28867 4.20329
thorax -0.305917 -0.715427 1.40017
lowerneck -12.1877 -6.87456 -10.551
upperneck 8.69582 -8.43611 8.3079
head 5.41286 -3.96231 3.57249
rclavicle 1.2424e-014 1.74931e-014
rhumerus -32 0.379382 -78.369
rradius 28.5762
rwrist 3.12472
rhand -11.8546 -18.3423
rfingers 7.12502
rthumb 14.1971 -47.8371
lclavicle 1.2424e-014 1.74931e-014
lhumerus -41.2622 -2.60074 90.0361
lradius 36.8498
lwrist -8.73017
lhand -11.6757 20.6034
lfingers 7.12502
lthumb 14.3695 50.0861
rfemur -13.1762 -0.17917 27.8239
rtibia 14.0456
rfoot -7.7411 -9.19045
rtoes 18.4737
lfemur -13.1871 -4.5233 -12.1226
ltibia 14.235
lfoot -8.52529 5.72043
ltoes 2.17351
23
root 42.6295 17.8804 5.75044 122.823 -83.9565 -112.115
lowerback -2.49088 -0.776275 5.14079
upperback -1.73005 -1.25152 4.22386
thorax -0.394748 -0.699127 1.43692
lowerneck -12.3056 -6.84686 -10.5035
upperneck 8.75414 -8.39181 8.25948
head 5.44205 -3.93926 3.55077
rclavicle -3.8763e-015 2.3059e-014
rhumerus -32.2228 0.430694 -78.4485
rradius 28.4364
rwrist 3.19112
rhand -11.7667 -18.2804
rfingers 7.12502
rthumb 14.2818 -47.7693
lclavicle -3.8763e-015 2.3059e-014
lhumerus -41.2964 -2.69587 90.1769
lradius 36.9833
lwrist -8.65761
lhand -11.7614 20.53
lfingers 7.12502
lthumb 14.2869 50.0185
rfemur -13.1262 -0.153973 27.8296
rtibia 14.0527
rfoot -7.77489 -9.21162
rtoes 18.4066
lfemur -13.0598 -4.45965 -12.1114
ltibia 14.1162
lfoot -8.51899 5.65836
ltoes 2.11917
24
root 42.6164 17.8797 5.75474 123.072 -83.9373 -112.373
lowerback -2.48081 -0.750823 5.10981
upperback -1.76603 -1.2145 4.23086
thorax -0.436174 -0.681591 1.46278
lowerneck -12.4074 -6.81339 -10.4478
upperneck 8.78935 -8.34358 8.22678
head 5.46142 -3.9135 3.53379
rclavicle -1.0635e-014 7.15625e-015
rhumerus -32.4059 0.482096 -78.547
rradius 28.3047
rwrist 3.25434
rhand -11.6861 -18.2368
rfingers 7.12502
rthumb 14.3595 -47.7202
lclavicle -1.0635e-014 7.15625e-015
lhumerus -41.3023 -2.76822 90.2824
lradius 37.1203
lwrist -8.61836
lhand -11.7794 20.515
lfingers 7.12502
lthumb 14.2695 50.0047
rfemur -13.0871 -0.127624 27.8193
rtibia 14.0757
rfoot -7.81023 -9.22125
rtoes 18.3376
lfemur -12.9042 -4.38769 -12.1167
ltibia 13.9504
lfoot -8.49744 5.60005
ltoes 2.06945
25
root 42.6034 17.8791 5.75905 123.554 -83.9222 -112.861
lowerback -2.52854 -0.724152 5.07453
upperback -1.77297 -1.18163 4.22288
thorax -0.415583 -0.664587 1.47403
lowerneck -12.4871 -6.77195 -10.3886
upperneck 8.79163 -8.28868 8.21714
head 5.46719 -3.8835 3.52508
rclavicle 1.36167e-014 -5.56597e-015
rhumerus -32.5387 0.528906 -78.6664
rradius 28.1754
rwrist 3.33216
rhand -11.6213 -18.203
rfingers 7.12502
rthumb 14.4219 -47.6819
lclavicle 1.36167e-014 -5.56597e-015
lhumerus -41.2677 -2.81856 90.3486
lradius 37.2537
lwrist -8.60328
lhand -11.7422 20.5526
lfingers 7.12502
lthumb 14.3054 50.0398
rfemur -13.0625 -0.103785 27.7939
rtibia 14.1178
rfoot -7.84912 -9.21655
rtoes 18.2614
lfemur -12.7252 -4.30898 -12.1386
ltibia 13.7413
lfoot -8.4611 5.54817
ltoes 2.02326
26
root 42.5905 17.8787 5.76321 124.282 -83.9079 -113.59
lowerback -2.60415 -0.697983 5.02723
upperback -1.77602 -1.15139 4.2078
thorax -0.375306 -0.648387 1.48411
lowerneck -12.5237 -6.71743 -10.3316
upperneck 8.77195 -8.22064 8.22067
head 5.45849 -3.84744 3.52355
rclavicle -6.06293e-015 -2.06736e-014
rhumerus -32.6548 0.584363 -78.7969
rradius 28.0486
rwrist 3.41813
rhand -11.5589 -18.1495
rfingers 7.12502
rthumb 14.4821 -47.6241
lclavicle -6.06293e-015 -2.06736e-014
lhumerus -41.2367 -2.8386 90.3891
lradius 37.3866
lwrist -8.59641
lhand -11.683 20.6184
lfingers 7.12502
lthumb 14.3625 50.1016
rfemur -13.0558 -0.0746783 27.7553
rtibia 14.179
rfoot -7.89319 -9.20297
rtoes 18.1753
lfemur -12.5294 -4.22578 -12.1731
ltibia 13.4934
lfoot -8.41221 5.50849
ltoes 1.99297
27
root 42.5775 17.8783 5.76737 125.248 -83.8995 -114.55
lowerback -2.70425 -0.670409 4.96739
upperback -1.77014 -1.12096 4.18211
thorax -0.312097 -0.631405 1.48978
lowerneck -12.5603 -6.65819 -10.2705
upperneck 8.74572 -8.14756 8.23135
head 5.44745 -3.80837 3.52419
rclavicle 4.96962e-016 -2.06736e-014
rhumerus -32.7435 0.635606 -78.936
rradius 27.9276
rwrist 3.51466
rhand -11.5032 -18.0944
rfingers 7.12502
rthumb 14.5357 -47.5652
lclavicle 4.96962e-016 -2.06736e-014
lhumerus -41.1946 -2.84102 90.4078
lradius 37.5125
lwrist -8.58746
lhand -11.6302 20.6939
lfingers 7.12502
lthumb 14.4133 50.1735
rfemur -13.0654 -0.0556422 27.6972
rtibia 14.2542
rfoot -7.93954 -9.16671
rtoes 18.0909
lfemur -12.3216 -4.14271 -12.229
ltibia 13.2144
lfoot -8.35498 5.48298
ltoes 1.98977
28
root 42.5647 17.8782 5.77144 126.349 -83.8948 -115.639
lowerback -2.80065 -0.641249 4.89526
upperback -1.76682 -1.08727 4.15177
thorax -0.253473 -0.61275 1.49779
lowerneck -12.6146 -6.59925 -10.204
upperneck 8.73269 -8.07446 8.23814
head 5.44308 -3.76892 3.52219
rclavicle 1.42131e-014 -1.66979e-014
rhumerus -32.8162 0.666633 -79.0678
rradius 27.8071
rwrist 3.6255
rhand -11.4509 -17.9918
rfingers 7.12502
rthumb 14.5861 -47.4589
lclavicle 1.42131e-014 -1.66979e-014
lhumerus -41.1503 -2.83256 90.4142
lradius 37.6301
lwrist -8.59576
lhand -11.5382 20.8152
lfingers 7.12502
lthumb 14.502 50.2884
rfemur -13.0865 -0.0399261 27.6262
rtibia 14.3372
rfoot -7.98811 -9.12076
rtoes 18.0106
lfemur -12.1092 -4.06724 -12.2979
ltibia 12.915
lfoot -8.29161 5.46934
ltoes 2.0169
29
root 42.5519 17.8783 5.77551 127.487 -83.8979 -116.757
lowerback -2.86467 -0.614242 4.80711
upperback -1.78403 -1.0522 4.12317
thorax -0.23385 -0.594103 1.5174
lowerneck -12.6924 -6.54322 -10.137
upperneck 8.75363 -8.00349 8.23229
head 5.45286 -3.73068 3.51511
rclavicle 6.06293e-015 -2.8625e-014
rhumerus -32.9005 0.691022 -79.1854
rradius 27.6964
rwrist 3.73992
rhand -11.4022 -17.8853
rfingers 7.12502
rthumb 14.633 -47.349
lclavicle 6.06293e-015 -2.8625e-014
lhumerus -41.1379 -2.85514 90.456
lradius 37.7261
lwrist -8.42225
lhand -11.699 20.8481
lfingers 7.12502
lthumb 14.347 50.3324
rfemur -13.1128 -0.0340721 27.5425
rtibia 14.4178
rfoot -8.03753 -9.0693
rtoes 17.9291
lfemur -11.8994 -4.00962 -12.3803
ltibia 12.6072
lfoot -8.22604 5.46997
ltoes 2.06204
30
root 42.539 17.8787 5.77977 128.58 -83.9126 -117.827
lowerback -2.89965 -0.591677 4.70652
upperback -1.82172 -1.01936 4.09746
thorax -0.251398 -0.577239 1.5476
lowerneck -12.7823 -6.49058 -10.0739
upperneck 8.80239 -7.93549 8.21502
head 5.47332 -3.69441 3.50429
rclavicle -1.31198e-014 4.77083e-014
rhumerus -33 0.711284 -79.2883
rradius 27.5955
rwrist 3.84484
rhand -11.3669 -17.7874
rfingers 7.12502
rthumb 14.667 -47.2487
lclavicle -1.31198e-014 4.77083e-014
lhumerus -41.1469 -2.88863 90.5119
lradius 37.7991
lwrist -8.20768
lhand -11.9 20.8677
lfingers 7.12502
lthumb 14.1534 50.3656
rfemur -13.1388 -0.0387484 27.4462
rtibia 14.4887
rfoot -8.08683 -9.01915
rtoes 17.8529
lfemur -11.6988 -3.97731 -12.4765
ltibia 12.3011
lfoot -8.15771 5.48462
ltoes 2.14273
31
root 42.5264 17.8793 5.78406 129.579 -83.9343 -118.797
lowerback -2.90903 -0.57417 4.60082
upperback -1.87908 -0.9903 4.07582
thorax -0.303488 -0.562927 1.58539
lowerneck -12.8717 -6.44151 -10.0129
upperneck 8.86949 -7.87156 8.18558
head 5.49943 -3.66096 3.48944
rclavicle -1.2424e-014 -2.38542e-015
rhumerus -33.1157 0.723922 -79.3785
rradius 27.5083
rwrist 3.93641
rhand -11.3419 -17.6973
rfingers 7.12502
rthumb 14.6911 -47.1568
lclavicle -1.2424e-014 -2.38542e-015
lhumerus -41.1906 -2.9221 90.5726
lradius 37.8673
lwrist -8.0018
lhand -12.0833 20.8891
lfingers 7.12502
lthumb 13.9768 50.3993
rfemur -13.1626 -0.0433195 27.3461
rtibia 14.5447
rfoot -8.13006 -8.97954
rtoes 17.7838
lfemur -11.515 -3.97111 -12.5765
ltibia 12.0085
lfoot -8.0918 5.51533
ltoes 2.25075
32
root 42.514 17.8802 5.78856 130.438 -83.9629 -119.623
lowerback -2.901 -0.564113 4.49884
upperback -1.95129 -0.969477 4.05756
thorax -0.380729 -0.553233 1.62482
lowerneck -12.9534 -6.39057 -9.964
upperneck 8.95074 -7.80416 8.15302
head 5.52876 -3.6266 3.47604
rclavicle 1.79403e-014 2.46493e-014
rhumerus -33.245 0.735181 -79.4607
rradius 27.435
rwrist 4.00855
rhand -11.3247 -17.6298
rfingers 7.12502
rthumb 14.7077 -47.0881
lclavicle 1.79403e-014 2.46493e-014
lhumerus -41.2613 -2.96105 90.6368
lradius 37.9252
lwrist -7.79453
lhand -12.2602 20.9065
lfingers 7.12502
lthumb 13.8062 50.4283
rfemur -13.1793 -0.0490489 27.2453
rtibia 14.5809
rfoot -8.16748 -8.95096
rtoes 17.7203
lfemur -11.3536 -3.99053 -12.6786
ltibia 11.7437
lfoot -8.03417 5.56002
ltoes 2.37442
33
root 42.5019 17.8812 5.79332 131.135 -83.9924 -120.283
lowerback -2.90085 -0.560415 4.41058
upperback -2.02522 -0.958349 4.04269
thorax -0.4556 -0.548491 1.65978
lowerneck -13.0159 -6.33781 -9.93549
upperneck 9.02907 -7.73333 8.1285
head 5.55489 -3.59122 3.46931
rclavicle -9.59136e-015 2.54444e-014
rhumerus -33.3707 0.741456 -79.5382
rradius 27.3754
rwrist 4.05922
rhand -11.3099 -17.5976
rfingers 7.12502
rthumb 14.7219 -47.0548
lclavicle -9.59136e-015 2.54444e-014
lhumerus -41.3403 -3.00085 90.696
lradius 37.9763
lwrist -7.62133
lhand -12.3984 20.9127
lfingers 7.12502
lthumb 13.6731 50.4436
rfemur -13.1891 -0.0499362 27.1519
rtibia 14.596
rfoot -8.19704 -8.93528
rtoes 17.6699
lfemur -11.22 -4.03075 -12.7742
ltibia 11.515
lfoot -7.98816 5.61732
ltoes 2.50468
34
root 42.4904 17.8823 5.79833 131.64 -84.0188 -120.748
lowerback -2.90443 -0.565161 4.34476
upperback -2.10354 -0.959491 4.0315
thorax -0.533279 -0.550228 1.68579
lowerneck -13.048 -6.27773 -9.92468
upperneck 9.10059 -7.65278 8.11097
head 5.57402 -3.55202 3.4694
rclavicle -2.57426e-014 -2.38542e-015
rhumerus -33.4988 0.760405 -79.6205
rradius 27.3342
rwrist 4.07682
rhand -11.2987 -17.5907
rfingers 7.12502
rthumb 14.7327 -47.0471
lclavicle -2.57426e-014 -2.38542e-015
lhumerus -41.4323 -3.02481 90.7395
lradius 38.0209
lwrist -7.5144
lhand -12.4653 20.922
lfingers 7.12502
lthumb 13.6086 50.4572
rfemur -13.1917 -0.0421152 27.0724
rtibia 14.5889
rfoot -8.2189 -8.93683
rtoes 17.6298
lfemur -11.1214 -4.08129 -12.8565
ltibia 11.3367
lfoot -7.95998 5.67975
ltoes 2.62193
35
root 42.4794 17.8835 5.80381 131.939 -84.0436 -121.002
lowerback -2.93514 -0.579017 4.31231
upperback -2.16925 -0.976333 4.01819
thorax -0.583428 -0.559722 1.69012
lowerneck -13.0642 -6.21116 -9.929
upperneck 9.15587 -7.56321 8.10833
head 5.58582 -3.50839 3.47806
rclavicle -8.84592e-015 6.20208e-014
rhumerus -33.6033 0.782997 -79.7151
rradius 27.3073
rwrist 4.0693
rhand -11.2913 -17.5963
rfingers 7.12502
rthumb 14.7399 -47.0522
lclavicle -8.84592e-015 6.20208e-014
lhumerus -41.5122 -3.03506 90.7576
lradius 38.061
lwrist -7.47425
lhand -12.4544 20.9424
lfingers 7.12502
lthumb 13.6191 50.4769
rfemur -13.1877 -0.0340342 27.0072
rtibia 14.564
rfoot -8.23379 -8.9468
rtoes 17.5896
lfemur -11.0607 -4.13573 -12.9268
ltibia 11.2144
lfoot -7.95341 5.73739
ltoes 2.72065
36
root 42.4689 17.8845 5.80977 132.088 -84.0581 -121.102
lowerback -2.97749 -0.596492 4.30994
upperback -2.23085 -1.00005 4.00717
thorax -0.623352 -0.572934 1.67968
lowerneck -13.065 -6.14086 -9.94371
upperneck 9.19918 -7.46847 8.1135
head 5.59155 -3.4625 3.49181
rclavicle 1.16289e-014 -8.74653e-015
rhumerus -33.6961 0.810866 -79.8133
rradius 27.2956
rwrist 4.03878
rhand -11.2816 -17.5954
rfingers 7.12502
rthumb 14.7492 -47.0507
lclavicle 1.16289e-014 -8.74653e-015
lhumerus -41.5852 -3.03014 90.7584
lradius 38.0927
lwrist -7.50506
lhand -12.371 20.9833
lfingers 7.12502
lthumb 13.6995 50.5124
rfemur -13.1825 -0.020993 26.9606
rtibia 14.5239
rfoot -8.24429 -8.96412
rtoes 17.5521
lfemur -11.0402 -4.1801 -12.9785
ltibia 11.1486
lfoot -7.96642 5.78735
ltoes 2.80289
